<svg width="11" height="18" viewBox="0 0 11 18" fill="none" xmlns="http://www.w3.org/2000/svg">
<path d="M1.59011 12.4279C1.3151 14.2788 3.51511 15.8654 5.44011 15.8654M1.93012 12.4784C1.95802 12.2906 1.82841 12.1158 1.64062 12.0879C1.45284 12.06 1.27799 12.1896 1.25009 12.3774C1.08887 13.4625 1.65878 14.4311 2.4705 15.1052C3.28348 15.7803 4.39116 16.2091 5.44011 16.2091C5.62996 16.2091 5.78386 16.0552 5.78386 15.8654C5.78386 15.6755 5.62996 15.5216 5.44012 15.5216C4.56406 15.5216 3.60923 15.1572 2.90971 14.5763C2.20893 13.9943 1.81634 13.2442 1.93012 12.4784ZM10.6562 11.899C10.6562 14.6173 8.36055 16.8438 5.5 16.8438C2.63945 16.8438 0.34375 14.6173 0.34375 11.899C0.34375 11.2366 0.580963 10.3596 0.989216 9.34497C1.39432 8.33816 1.9541 7.22842 2.56983 6.11087C3.18506 4.99422 3.85237 3.87648 4.47075 2.8534C4.59005 2.65602 4.70765 2.46197 4.82276 2.27202C5.1692 1.70037 5.49305 1.166 5.77249 0.690663C5.78823 0.718275 5.80408 0.746086 5.82005 0.774093C6.63704 2.20742 7.74509 4.15139 8.69753 6.09618C9.24445 7.21293 9.73661 8.3231 10.0914 9.33081C10.4484 10.345 10.6562 11.2279 10.6562 11.899Z" stroke="white" stroke-width="0.6875" stroke-linecap="round"/>
</svg>
