<svg width="19" height="14" viewBox="0 0 19 14" fill="none" xmlns="http://www.w3.org/2000/svg">
<path d="M9.75 1C11.0922 1 12.4165 1.3088 13.6203 1.9025C14.8241 2.49621 15.8752 3.3589 16.6922 4.42383C17.5093 5.48877 18.0703 6.72739 18.3321 8.04388C18.5938 9.36036 18.5491 10.7194 18.2015 12.0159L16.3245 11.5122M9.75 1C8.40775 1 7.0835 1.3088 5.87969 1.9025C4.67589 2.49621 3.62481 3.3589 2.80778 4.42383C1.99075 5.48877 1.42967 6.72739 1.16795 8.04388C0.906228 9.36036 0.950888 10.7194 1.29847 12.0159L3.17617 11.5122M9.75 1L9.75034 2.94503M3.56312 3.56336L4.93784 4.93808M15.9376 3.56336L14.5628 4.93808M10.4941 10.3164C10.9675 11.0067 10.6341 12.0587 9.74934 12.6663C8.86462 13.2749 7.76309 13.2088 7.28962 12.5195C6.78406 11.7845 5.0399 7.65158 3.98115 5.09463C3.78184 4.61338 4.37004 4.20894 4.7492 4.56769C6.75587 6.47324 9.98948 9.58144 10.4941 10.3164Z" stroke="white" stroke-width="0.75" stroke-linecap="round"/>
</svg>
