<svg width="29" height="22" viewBox="0 0 29 22" fill="none" xmlns="http://www.w3.org/2000/svg">
<path fill-rule="evenodd" clip-rule="evenodd" d="M6.68426 16.2728C6.49892 16.0978 6.25377 16.0003 5.99889 16H4.99889L4.88189 16.007C4.6288 16.0371 4.39675 16.1627 4.23316 16.3581C4.06957 16.5536 3.98678 16.8041 4.00172 17.0586C4.01666 17.313 4.12819 17.5522 4.31352 17.7271C4.49886 17.9021 4.74401 17.9997 4.99889 18H5.99889L6.11589 17.993C6.36899 17.9629 6.60104 17.8373 6.76463 17.6418C6.92822 17.4463 7.011 17.1958 6.99606 16.9414C6.98113 16.6869 6.8696 16.4478 6.68426 16.2728ZM23.6843 16.2728C23.4989 16.0978 23.2538 16.0003 22.9989 16H21.9989L21.8819 16.007C21.6288 16.0371 21.3967 16.1627 21.2332 16.3581C21.0696 16.5536 20.9868 16.8041 21.0017 17.0586C21.0167 17.313 21.1282 17.5522 21.3135 17.7271C21.4989 17.9021 21.744 17.9997 21.9989 18H22.9989L23.1159 17.993C23.369 17.9629 23.601 17.8373 23.7646 17.6418C23.9282 17.4463 24.011 17.1958 23.9961 16.9414C23.9811 16.6869 23.8696 16.4478 23.6843 16.2728ZM8.30589 9.89297L8.21189 9.80997L8.10889 9.73997C7.89938 9.61606 7.65187 9.57282 7.41276 9.61836C7.17365 9.6639 6.95936 9.79508 6.81005 9.98732C6.66075 10.1796 6.58669 10.4197 6.60176 10.6626C6.61682 10.9055 6.71998 11.1346 6.89189 11.307L7.59189 12.007L7.68589 12.09C7.88688 12.2454 8.13949 12.3185 8.39242 12.2944C8.64534 12.2703 8.87961 12.1508 9.04764 11.9602C9.21568 11.7697 9.30488 11.5223 9.29712 11.2684C9.28937 11.0144 9.18524 10.7729 9.00589 10.593L8.30589 9.89297ZM21.3968 10.5373C21.3815 10.2943 21.2781 10.0652 21.1059 9.89297C20.9184 9.7055 20.6641 9.60018 20.3989 9.60018C20.1337 9.60018 19.8794 9.7055 19.6919 9.89297L18.9919 10.593L18.9089 10.687C18.7535 10.888 18.6804 11.1406 18.7045 11.3935C18.7286 11.6464 18.848 11.8807 19.0386 12.0487C19.2292 12.2168 19.4766 12.306 19.7305 12.2982C19.9845 12.2904 20.2259 12.1863 20.4059 12.007L21.1059 11.307L21.1889 11.213C21.3381 11.0206 21.4121 10.7803 21.3968 10.5373ZM14.6633 7.25268C14.4802 7.08993 14.2438 7 13.9989 6.99997C13.7337 6.99997 13.4793 7.10533 13.2918 7.29286C13.1042 7.4804 12.9989 7.73475 12.9989 7.99997V8.99997L13.0059 9.11697C13.036 9.37007 13.1616 9.60211 13.3571 9.7657C13.5525 9.92929 13.8031 10.0121 14.0575 9.99714C14.3119 9.9822 14.5511 9.87067 14.726 9.68534C14.901 9.5 14.9986 9.25485 14.9989 8.99997V7.99997L14.9919 7.88297C14.9632 7.63972 14.8463 7.41544 14.6633 7.25268ZM16.7542 12.8275C15.9367 12.2877 14.9786 11.9999 13.9989 12C12.7104 12 11.4717 12.4975 10.5411 13.3886C9.6105 14.2797 9.05592 15.7127 9 17H18.9992C18.9992 16.3281 18.8637 15.6599 18.5975 15.0363C18.2127 14.1354 17.5718 13.3673 16.7542 12.8275Z" fill="#FDB813"/>
<path d="M1 17.5H28" stroke="white" stroke-linecap="round"/>
<path d="M16 1.99999L14.4 1.99999L14.4 5.56799L13.596 5.57999V1.99999L12 1.99999L14 -1.38283e-05L16 1.99999Z" fill="white"/>
</svg>
