<svg width="16" height="30" viewBox="0 0 16 30" fill="none" xmlns="http://www.w3.org/2000/svg">
<path d="M6.25343 22.3196C9.14629 22.3196 11.4966 19.9689 11.4966 17.076C11.4966 15.549 10.864 14.2131 9.66829 13.1284C9.44757 12.9274 9.39743 12.8169 9.39743 12.5156L9.41757 3.49543C9.41757 1.39629 8.14171 0 6.25343 0C4.35486 0 3.079 1.39629 3.079 3.49543L3.08929 12.5156C3.08929 12.8169 3.03914 12.9274 2.82786 13.1284C1.62271 14.2131 1 15.549 1 17.0756C1 19.9684 3.34 22.3196 6.25343 22.3196ZM6.25343 20.862C4.16414 20.862 2.46657 19.1546 2.46657 17.0756C2.46657 15.8199 3.05929 14.685 4.12386 13.9719C4.43543 13.7606 4.55586 13.5699 4.55586 13.158V3.55586C4.55586 2.29029 5.24886 1.47643 6.253 1.47643C7.24771 1.47643 7.93086 2.29029 7.93086 3.55586V13.1584C7.93086 13.5703 8.05129 13.761 8.36286 13.9719C9.42743 14.6854 10.0201 15.8203 10.0201 17.076C10.0201 19.155 8.33286 20.862 6.25343 20.862ZM11.2853 3.687H13.4753C13.5528 3.68884 13.6298 3.67509 13.7019 3.64657C13.774 3.61805 13.8396 3.57534 13.8948 3.52097C13.9501 3.46661 13.9938 3.40169 14.0235 3.33009C14.0532 3.25849 14.0682 3.18165 14.0676 3.10414C14.0682 3.0266 14.0532 2.94973 14.0235 2.87809C13.9938 2.80646 13.95 2.74153 13.8947 2.68716C13.8394 2.63278 13.7737 2.59008 13.7016 2.56159C13.6295 2.53309 13.5524 2.51939 13.4749 2.52129H11.2849C11.2074 2.51945 11.1303 2.53319 11.0582 2.56172C10.9862 2.59024 10.9206 2.63295 10.8653 2.68731C10.8101 2.74168 10.7663 2.80659 10.7366 2.8782C10.707 2.9498 10.692 3.02664 10.6926 3.10414C10.6926 3.41571 10.9339 3.687 11.2853 3.687ZM11.2853 6.50914H13.4753C13.5527 6.51098 13.6298 6.49725 13.7018 6.46875C13.7739 6.44026 13.8394 6.39758 13.8947 6.34326C13.9499 6.28894 13.9937 6.22408 14.0234 6.15253C14.0531 6.08098 14.0681 6.00419 14.0676 5.92671C14.0682 5.84917 14.0532 5.7723 14.0235 5.70066C13.9938 5.62903 13.95 5.5641 13.8947 5.50973C13.8394 5.45536 13.7737 5.41265 13.7016 5.38416C13.6295 5.35566 13.5524 5.34196 13.4749 5.34386H11.2849C11.2074 5.34202 11.1303 5.35577 11.0582 5.38429C10.9862 5.41281 10.9206 5.45552 10.8653 5.50988C10.8101 5.56425 10.7663 5.62916 10.7366 5.70077C10.707 5.77237 10.692 5.84921 10.6926 5.92671C10.6926 6.23829 10.9339 6.50914 11.2853 6.50914ZM6.24314 19.5073C6.56332 19.5076 6.88038 19.4446 7.17611 19.3218C7.47184 19.1991 7.74038 19.0192 7.9663 18.7923C8.19222 18.5654 8.37105 18.2961 8.4925 17.9999C8.61396 17.7036 8.67564 17.3863 8.674 17.0661C8.674 16.122 8.14171 15.3484 7.36814 14.9267C7.04671 14.7561 6.93614 14.6353 6.93614 14.1433V8.80929C6.93614 8.28643 6.63486 7.97529 6.24314 7.97529C5.86171 7.97529 5.55014 8.28686 5.55014 8.80929V14.1424C5.55014 14.6344 5.43957 14.7553 5.11814 14.9259C4.345 15.3476 3.81229 16.1216 3.81229 17.0653C3.81065 17.3855 3.87233 17.7028 3.99378 17.999C4.11524 18.2953 4.29407 18.5646 4.51999 18.7914C4.7459 19.0183 5.01445 19.1983 5.31018 19.321C5.6059 19.4437 5.92297 19.5076 6.24314 19.5073ZM11.2857 9.33086H13.4757C13.5532 9.3327 13.6302 9.31896 13.7022 9.29047C13.7743 9.26197 13.8399 9.2193 13.8951 9.16498C13.9503 9.11066 13.9941 9.0458 14.0238 8.97424C14.0535 8.90269 14.0685 8.8259 14.068 8.74843C14.0687 8.67038 14.0539 8.59298 14.0244 8.52073C13.9949 8.44848 13.9512 8.38285 13.8961 8.32766C13.8409 8.27247 13.7752 8.22884 13.703 8.19932C13.6307 8.16979 13.5533 8.15497 13.4753 8.15571H11.2853C11.2073 8.15503 11.1299 8.16989 11.0577 8.19944C10.9855 8.22899 10.9199 8.27263 10.8648 8.32781C10.8097 8.38299 10.7661 8.44861 10.7366 8.52083C10.7071 8.59305 10.6923 8.67042 10.693 8.74843C10.693 9.06 10.9343 9.33086 11.2857 9.33086ZM11.2857 12.1539H13.4757C13.5537 12.1545 13.6311 12.1397 13.7033 12.1101C13.7755 12.0806 13.8411 12.0369 13.8962 11.9818C13.9513 11.9266 13.9949 11.861 14.0244 11.7887C14.0539 11.7165 14.0687 11.6391 14.068 11.5611C14.0685 11.4836 14.0535 11.4068 14.0238 11.3352C13.994 11.2636 13.9502 11.1988 13.895 11.1444C13.8397 11.0901 13.774 11.0474 13.7019 11.019C13.6298 10.9905 13.5528 10.9768 13.4753 10.9787H11.2853C11.2078 10.9769 11.1307 10.9906 11.0587 11.0191C10.9866 11.0477 10.921 11.0904 10.8657 11.1447C10.8105 11.1991 10.7667 11.264 10.7371 11.3356C10.7074 11.4072 10.6924 11.4841 10.693 11.5616C10.6923 11.6396 10.7072 11.7169 10.7367 11.7891C10.7663 11.8613 10.8099 11.9269 10.8651 11.9821C10.9203 12.0372 10.9859 12.0808 11.0581 12.1103C11.1303 12.1398 11.2077 12.1546 11.2857 12.1539Z" fill="white"/>
<path d="M1.5625 25.6484V29H0.433594V24.7734H1.49219L1.5625 25.6484ZM1.40625 26.7383H1.09375C1.09375 26.444 1.12891 26.1732 1.19922 25.9258C1.27214 25.6758 1.3776 25.4596 1.51562 25.2773C1.65625 25.0924 1.82943 24.9492 2.03516 24.8477C2.24089 24.7461 2.47917 24.6953 2.75 24.6953C2.9375 24.6953 3.10938 24.724 3.26562 24.7812C3.42188 24.8359 3.55599 24.9232 3.66797 25.043C3.78255 25.1602 3.87109 25.3138 3.93359 25.5039C3.99609 25.6914 4.02734 25.9167 4.02734 26.1797V29H2.90234V26.3047C2.90234 26.112 2.8763 25.9635 2.82422 25.8594C2.77214 25.7552 2.69792 25.6823 2.60156 25.6406C2.50781 25.599 2.39453 25.5781 2.26172 25.5781C2.11589 25.5781 1.98828 25.6081 1.87891 25.668C1.77214 25.7279 1.68359 25.8112 1.61328 25.918C1.54297 26.0221 1.49089 26.1445 1.45703 26.2852C1.42318 26.4258 1.40625 26.5768 1.40625 26.7383ZM3.92188 26.6094L3.51953 26.6602C3.51953 26.3841 3.55339 26.1276 3.62109 25.8906C3.69141 25.6536 3.79427 25.4453 3.92969 25.2656C4.06771 25.0859 4.23828 24.9466 4.44141 24.8477C4.64453 24.7461 4.87891 24.6953 5.14453 24.6953C5.34766 24.6953 5.53255 24.7253 5.69922 24.7852C5.86589 24.8424 6.00781 24.9349 6.125 25.0625C6.24479 25.1875 6.33594 25.3516 6.39844 25.5547C6.46354 25.7578 6.49609 26.0065 6.49609 26.3008V29H5.36719V26.3008C5.36719 26.1055 5.34115 25.957 5.28906 25.8555C5.23958 25.7513 5.16667 25.6797 5.07031 25.6406C4.97656 25.599 4.86458 25.5781 4.73438 25.5781C4.59896 25.5781 4.48047 25.6055 4.37891 25.6602C4.27734 25.7122 4.19271 25.7852 4.125 25.8789C4.05729 25.9727 4.00651 26.082 3.97266 26.207C3.9388 26.3294 3.92188 26.4635 3.92188 26.6094Z" fill="white"/>
<path d="M9.64844 28.0469V26.1641C9.64844 26.0286 9.6263 25.9128 9.58203 25.8164C9.53776 25.7174 9.46875 25.6406 9.375 25.5859C9.28385 25.5312 9.16536 25.5039 9.01953 25.5039C8.89453 25.5039 8.78646 25.526 8.69531 25.5703C8.60417 25.612 8.53385 25.6732 8.48438 25.7539C8.4349 25.832 8.41016 25.9245 8.41016 26.0312H7.28516C7.28516 25.8516 7.32682 25.681 7.41016 25.5195C7.49349 25.3581 7.61458 25.2161 7.77344 25.0938C7.93229 24.9688 8.12109 24.8711 8.33984 24.8008C8.5612 24.7305 8.80859 24.6953 9.08203 24.6953C9.41016 24.6953 9.70182 24.75 9.95703 24.8594C10.2122 24.9688 10.4128 25.1328 10.5586 25.3516C10.707 25.5703 10.7812 25.8438 10.7812 26.1719V27.9805C10.7812 28.2122 10.7956 28.4023 10.8242 28.5508C10.8529 28.6966 10.8945 28.8242 10.9492 28.9336V29H9.8125C9.75781 28.8854 9.71615 28.7422 9.6875 28.5703C9.66146 28.3958 9.64844 28.2214 9.64844 28.0469ZM9.79688 26.4258L9.80469 27.0625H9.17578C9.02734 27.0625 8.89844 27.0794 8.78906 27.1133C8.67969 27.1471 8.58984 27.1953 8.51953 27.2578C8.44922 27.3177 8.39714 27.388 8.36328 27.4688C8.33203 27.5495 8.31641 27.638 8.31641 27.7344C8.31641 27.8307 8.33854 27.918 8.38281 27.9961C8.42708 28.0716 8.49089 28.1315 8.57422 28.1758C8.65755 28.2174 8.75521 28.2383 8.86719 28.2383C9.03646 28.2383 9.18359 28.2044 9.30859 28.1367C9.43359 28.069 9.52995 27.9857 9.59766 27.8867C9.66797 27.7878 9.70443 27.694 9.70703 27.6055L10.0039 28.082C9.96224 28.1888 9.90495 28.2995 9.83203 28.4141C9.76172 28.5286 9.67188 28.6367 9.5625 28.7383C9.45312 28.8372 9.32161 28.9193 9.16797 28.9844C9.01432 29.0469 8.83203 29.0781 8.62109 29.0781C8.35286 29.0781 8.10938 29.0247 7.89062 28.918C7.67448 28.8086 7.5026 28.6589 7.375 28.4688C7.25 28.276 7.1875 28.0573 7.1875 27.8125C7.1875 27.5911 7.22917 27.3945 7.3125 27.2227C7.39583 27.0508 7.51823 26.9062 7.67969 26.7891C7.84375 26.6693 8.04818 26.5794 8.29297 26.5195C8.53776 26.457 8.82161 26.4258 9.14453 26.4258H9.79688Z" fill="white"/>
<path d="M12.5547 24.7734L13.2539 26.0586L13.9727 24.7734H15.1719L13.9766 26.8398L15.2266 29H14.0234L13.2617 27.6406L12.5 29H11.2969L12.5469 26.8398L11.3516 24.7734H12.5547Z" fill="white"/>
</svg>
