<svg width="14" height="29" viewBox="0 0 14 29" fill="none" xmlns="http://www.w3.org/2000/svg">
<path d="M5.25343 22.3196C8.14629 22.3196 10.4966 19.9689 10.4966 17.076C10.4966 15.549 9.864 14.2131 8.66829 13.1284C8.44757 12.9274 8.39743 12.8169 8.39743 12.5156L8.41757 3.49543C8.41757 1.39629 7.14171 0 5.25343 0C3.35486 0 2.079 1.39629 2.079 3.49543L2.08929 12.5156C2.08929 12.8169 2.03914 12.9274 1.82786 13.1284C0.622714 14.2131 0 15.549 0 17.0756C0 19.9684 2.34 22.3196 5.25343 22.3196ZM5.25343 20.862C3.16414 20.862 1.46657 19.1546 1.46657 17.0756C1.46657 15.8199 2.05929 14.685 3.12386 13.9719C3.43543 13.7606 3.55586 13.5699 3.55586 13.158V3.55586C3.55586 2.29029 4.24886 1.47643 5.253 1.47643C6.24771 1.47643 6.93086 2.29029 6.93086 3.55586V13.1584C6.93086 13.5703 7.05129 13.761 7.36286 13.9719C8.42743 14.6854 9.02014 15.8203 9.02014 17.076C9.02014 19.155 7.33286 20.862 5.25343 20.862ZM10.2853 3.687H12.4753C12.5528 3.68884 12.6298 3.67509 12.7019 3.64657C12.774 3.61805 12.8396 3.57534 12.8948 3.52097C12.9501 3.46661 12.9938 3.40169 13.0235 3.33009C13.0532 3.25849 13.0682 3.18165 13.0676 3.10414C13.0682 3.0266 13.0532 2.94973 13.0235 2.87809C12.9938 2.80646 12.95 2.74153 12.8947 2.68716C12.8394 2.63278 12.7737 2.59008 12.7016 2.56159C12.6295 2.53309 12.5524 2.51939 12.4749 2.52129H10.2849C10.2074 2.51945 10.1303 2.53319 10.0582 2.56172C9.98616 2.59024 9.92055 2.63295 9.86531 2.68731C9.81006 2.74168 9.76631 2.80659 9.73663 2.8782C9.70696 2.9498 9.69198 3.02664 9.69257 3.10414C9.69257 3.41571 9.93386 3.687 10.2853 3.687ZM10.2853 6.50914H12.4753C12.5527 6.51098 12.6298 6.49725 12.7018 6.46875C12.7739 6.44026 12.8394 6.39758 12.8947 6.34326C12.9499 6.28894 12.9937 6.22408 13.0234 6.15253C13.0531 6.08098 13.0681 6.00419 13.0676 5.92671C13.0682 5.84917 13.0532 5.7723 13.0235 5.70066C12.9938 5.62903 12.95 5.5641 12.8947 5.50973C12.8394 5.45536 12.7737 5.41265 12.7016 5.38416C12.6295 5.35566 12.5524 5.34196 12.4749 5.34386H10.2849C10.2074 5.34202 10.1303 5.35577 10.0582 5.38429C9.98616 5.41281 9.92055 5.45552 9.86531 5.50988C9.81006 5.56425 9.76631 5.62916 9.73663 5.70077C9.70696 5.77237 9.69198 5.84921 9.69257 5.92671C9.69257 6.23829 9.93386 6.50914 10.2853 6.50914ZM5.24314 19.5073C5.56332 19.5076 5.88038 19.4446 6.17611 19.3218C6.47184 19.1991 6.74038 19.0192 6.9663 18.7923C7.19222 18.5654 7.37105 18.2961 7.4925 17.9999C7.61396 17.7036 7.67564 17.3863 7.674 17.0661C7.674 16.122 7.14171 15.3484 6.36814 14.9267C6.04671 14.7561 5.93614 14.6353 5.93614 14.1433V8.80929C5.93614 8.28643 5.63486 7.97529 5.24314 7.97529C4.86171 7.97529 4.55014 8.28686 4.55014 8.80929V14.1424C4.55014 14.6344 4.43957 14.7553 4.11814 14.9259C3.345 15.3476 2.81229 16.1216 2.81229 17.0653C2.81065 17.3855 2.87233 17.7028 2.99378 17.999C3.11524 18.2953 3.29407 18.5646 3.51999 18.7914C3.7459 19.0183 4.01445 19.1983 4.31018 19.321C4.6059 19.4437 4.92297 19.5076 5.24314 19.5073ZM10.2857 9.33086H12.4757C12.5532 9.3327 12.6302 9.31896 12.7022 9.29047C12.7743 9.26197 12.8399 9.2193 12.8951 9.16498C12.9503 9.11066 12.9941 9.0458 13.0238 8.97424C13.0535 8.90269 13.0685 8.8259 13.068 8.74843C13.0687 8.67038 13.0539 8.59298 13.0244 8.52073C12.9949 8.44848 12.9512 8.38285 12.8961 8.32766C12.8409 8.27247 12.7752 8.22884 12.703 8.19932C12.6307 8.16979 12.5533 8.15497 12.4753 8.15571H10.2853C10.2073 8.15503 10.1299 8.16989 10.0577 8.19944C9.98552 8.22899 9.91994 8.27263 9.86479 8.32781C9.80965 8.38299 9.76606 8.44861 9.73656 8.52083C9.70707 8.59305 9.69226 8.67042 9.693 8.74843C9.693 9.06 9.93429 9.33086 10.2857 9.33086ZM10.2857 12.1539H12.4757C12.5537 12.1545 12.6311 12.1397 12.7033 12.1101C12.7755 12.0806 12.8411 12.0369 12.8962 11.9818C12.9513 11.9266 12.9949 11.861 13.0244 11.7887C13.0539 11.7165 13.0687 11.6391 13.068 11.5611C13.0685 11.4836 13.0535 11.4068 13.0238 11.3352C12.994 11.2636 12.9502 11.1988 12.895 11.1444C12.8397 11.0901 12.774 11.0474 12.7019 11.019C12.6298 10.9905 12.5528 10.9768 12.4753 10.9787H10.2853C10.2078 10.9769 10.1307 10.9906 10.0587 11.0191C9.98659 11.0477 9.92098 11.0904 9.86574 11.1447C9.81049 11.1991 9.76673 11.264 9.73706 11.3356C9.70739 11.4072 9.6924 11.4841 9.693 11.5616C9.69231 11.6396 9.70718 11.7169 9.73673 11.7891C9.76628 11.8613 9.80992 11.9269 9.8651 11.9821C9.92028 12.0372 9.9859 12.0808 10.0581 12.1103C10.1303 12.1398 10.2077 12.1546 10.2857 12.1539Z" fill="white"/>
<path d="M1.5625 25.6484V29H0.433594V24.7734H1.49219L1.5625 25.6484ZM1.40625 26.7383H1.09375C1.09375 26.444 1.12891 26.1732 1.19922 25.9258C1.27214 25.6758 1.3776 25.4596 1.51562 25.2773C1.65625 25.0924 1.82943 24.9492 2.03516 24.8477C2.24089 24.7461 2.47917 24.6953 2.75 24.6953C2.9375 24.6953 3.10938 24.724 3.26562 24.7812C3.42188 24.8359 3.55599 24.9232 3.66797 25.043C3.78255 25.1602 3.87109 25.3138 3.93359 25.5039C3.99609 25.6914 4.02734 25.9167 4.02734 26.1797V29H2.90234V26.3047C2.90234 26.112 2.8763 25.9635 2.82422 25.8594C2.77214 25.7552 2.69792 25.6823 2.60156 25.6406C2.50781 25.599 2.39453 25.5781 2.26172 25.5781C2.11589 25.5781 1.98828 25.6081 1.87891 25.668C1.77214 25.7279 1.68359 25.8112 1.61328 25.918C1.54297 26.0221 1.49089 26.1445 1.45703 26.2852C1.42318 26.4258 1.40625 26.5768 1.40625 26.7383ZM3.92188 26.6094L3.51953 26.6602C3.51953 26.3841 3.55339 26.1276 3.62109 25.8906C3.69141 25.6536 3.79427 25.4453 3.92969 25.2656C4.06771 25.0859 4.23828 24.9466 4.44141 24.8477C4.64453 24.7461 4.87891 24.6953 5.14453 24.6953C5.34766 24.6953 5.53255 24.7253 5.69922 24.7852C5.86589 24.8424 6.00781 24.9349 6.125 25.0625C6.24479 25.1875 6.33594 25.3516 6.39844 25.5547C6.46354 25.7578 6.49609 26.0065 6.49609 26.3008V29H5.36719V26.3008C5.36719 26.1055 5.34115 25.957 5.28906 25.8555C5.23958 25.7513 5.16667 25.6797 5.07031 25.6406C4.97656 25.599 4.86458 25.5781 4.73438 25.5781C4.59896 25.5781 4.48047 25.6055 4.37891 25.6602C4.27734 25.7122 4.19271 25.7852 4.125 25.8789C4.05729 25.9727 4.00651 26.082 3.97266 26.207C3.9388 26.3294 3.92188 26.4635 3.92188 26.6094Z" fill="white"/>
<path d="M8.55469 24.7734V29H7.42578V24.7734H8.55469ZM7.35547 23.6719C7.35547 23.5078 7.41276 23.3724 7.52734 23.2656C7.64193 23.1589 7.79557 23.1055 7.98828 23.1055C8.17839 23.1055 8.33073 23.1589 8.44531 23.2656C8.5625 23.3724 8.62109 23.5078 8.62109 23.6719C8.62109 23.8359 8.5625 23.9714 8.44531 24.0781C8.33073 24.1849 8.17839 24.2383 7.98828 24.2383C7.79557 24.2383 7.64193 24.1849 7.52734 24.0781C7.41276 23.9714 7.35547 23.8359 7.35547 23.6719Z" fill="white"/>
<path d="M10.5859 25.6758V29H9.46094V24.7734H10.5156L10.5859 25.6758ZM10.4219 26.7383H10.1172C10.1172 26.4258 10.1576 26.1445 10.2383 25.8945C10.319 25.6419 10.4323 25.4271 10.5781 25.25C10.724 25.0703 10.8971 24.9336 11.0977 24.8398C11.3008 24.7435 11.5273 24.6953 11.7773 24.6953C11.9753 24.6953 12.1562 24.724 12.3203 24.7812C12.4844 24.8385 12.625 24.9297 12.7422 25.0547C12.862 25.1797 12.9531 25.3451 13.0156 25.5508C13.0807 25.7565 13.1133 26.0078 13.1133 26.3047V29H11.9805V26.3008C11.9805 26.1133 11.9544 25.9674 11.9023 25.8633C11.8503 25.7591 11.7734 25.6862 11.6719 25.6445C11.5729 25.6003 11.4505 25.5781 11.3047 25.5781C11.1536 25.5781 11.0221 25.6081 10.9102 25.668C10.8008 25.7279 10.7096 25.8112 10.6367 25.918C10.5664 26.0221 10.513 26.1445 10.4766 26.2852C10.4401 26.4258 10.4219 26.5768 10.4219 26.7383Z" fill="white"/>
</svg>
