<svg width="28" height="26" viewBox="0 0 28 26" fill="none" xmlns="http://www.w3.org/2000/svg">
<path fill-rule="evenodd" clip-rule="evenodd" d="M23.9832 18.5C24.0177 18.3991 24.0506 18.2976 24.0819 18.1954L24.0866 18.202C24.1267 18.0716 24.1306 17.9329 24.0977 17.8005C24.0649 17.6682 23.9966 17.5473 23.9002 17.4509C23.8037 17.3545 23.6829 17.2862 23.5505 17.2533C23.4182 17.2205 23.2794 17.2243 23.1491 17.2645C21.719 17.6968 20.1984 17.733 18.7494 17.3693C17.3003 17.0056 15.977 16.2556 14.9206 15.1992C13.8642 14.1428 13.1142 12.8195 12.7505 11.3705C12.3868 9.92139 12.423 8.4008 12.8554 6.97071C12.8955 6.8404 12.8993 6.70162 12.8665 6.56929C12.8336 6.43695 12.7653 6.31608 12.6689 6.21967C12.5725 6.12326 12.4516 6.05495 12.3193 6.0221C12.187 5.98924 12.0482 5.99309 11.9179 6.03321C9.9407 6.63888 8.20492 7.8527 6.95755 9.50196C5.68126 11.1889 4.9936 13.2479 5.00004 15.3632C4.99979 16.4351 5.17621 17.4944 5.51761 18.5H23.9832Z" fill="#FDB813"/>
<path d="M1 19H27" stroke="white" stroke-linecap="round"/>
<path d="M11 3.58H12.6V0.0120001L13.404 0V3.58H15L13 5.58L11 3.58Z" fill="white"/>
</svg>
