<svg width="29" height="22" viewBox="0 0 29 22" fill="none" xmlns="http://www.w3.org/2000/svg">
<path fill-rule="evenodd" clip-rule="evenodd" d="M6.68426 16.2728C6.49892 16.0979 6.25377 16.0003 5.99889 16H4.99889L4.88189 16.007C4.6288 16.0371 4.39675 16.1627 4.23316 16.3582C4.06957 16.5536 3.98678 16.8042 4.00172 17.0586C4.01666 17.313 4.12819 17.5522 4.31352 17.7272C4.49886 17.9021 4.74401 17.9997 4.99889 18H5.99889L6.11589 17.993C6.36899 17.9629 6.60104 17.8373 6.76463 17.6418C6.92822 17.4464 7.011 17.1958 6.99606 16.9414C6.98113 16.687 6.8696 16.4478 6.68426 16.2728ZM23.6843 16.2728C23.4989 16.0979 23.2538 16.0003 22.9989 16H21.9989L21.8819 16.007C21.6288 16.0371 21.3967 16.1627 21.2332 16.3582C21.0696 16.5536 20.9868 16.8042 21.0017 17.0586C21.0167 17.313 21.1282 17.5522 21.3135 17.7272C21.4989 17.9021 21.744 17.9997 21.9989 18H22.9989L23.1159 17.993C23.369 17.9629 23.601 17.8373 23.7646 17.6418C23.9282 17.4464 24.011 17.1958 23.9961 16.9414C23.9811 16.687 23.8696 16.4478 23.6843 16.2728ZM8.30589 9.893L8.21189 9.81L8.10889 9.74C7.89938 9.61609 7.65187 9.57285 7.41276 9.61839C7.17365 9.66393 6.95936 9.79511 6.81005 9.98735C6.66075 10.1796 6.58669 10.4197 6.60176 10.6626C6.61682 10.9056 6.71998 11.1347 6.89189 11.307L7.59189 12.007L7.68589 12.09C7.88688 12.2454 8.13949 12.3185 8.39242 12.2944C8.64534 12.2703 8.87961 12.1508 9.04764 11.9603C9.21568 11.7697 9.30488 11.5223 9.29712 11.2684C9.28937 11.0144 9.18524 10.773 9.00589 10.593L8.30589 9.893ZM21.3968 10.5373C21.3815 10.2943 21.2781 10.0652 21.1059 9.893C20.9184 9.70553 20.6641 9.60021 20.3989 9.60021C20.1337 9.60021 19.8794 9.70553 19.6919 9.893L18.9919 10.593L18.9089 10.687C18.7535 10.888 18.6804 11.1406 18.7045 11.3935C18.7286 11.6464 18.848 11.8807 19.0386 12.0488C19.2292 12.2168 19.4766 12.306 19.7305 12.2982C19.9845 12.2905 20.2259 12.1863 20.4059 12.007L21.1059 11.307L21.1889 11.213C21.3381 11.0206 21.4121 10.7803 21.3968 10.5373ZM14.6633 7.25272C14.4802 7.08996 14.2438 7.00003 13.9989 7C13.7337 7 13.4793 7.10536 13.2918 7.29289C13.1042 7.48043 12.9989 7.73478 12.9989 8V9L13.0059 9.117C13.036 9.3701 13.1616 9.60214 13.3571 9.76574C13.5525 9.92933 13.8031 10.0121 14.0575 9.99717C14.3119 9.98223 14.5511 9.8707 14.726 9.68537C14.901 9.50003 14.9986 9.25488 14.9989 9V8L14.9919 7.883C14.9632 7.63975 14.8463 7.41547 14.6633 7.25272ZM16.7542 12.8275C15.9367 12.2877 14.9786 11.9999 13.9989 12C12.7104 12.0001 11.4717 12.4975 10.5411 13.3887C9.6105 14.2798 9.05592 15.7128 9 17H18.9992C18.9992 16.3281 18.8637 15.6599 18.5975 15.0364C18.2127 14.1354 17.5718 13.3673 16.7542 12.8275Z" fill="#FDB813"/>
<path d="M1 17.5H28" stroke="white" stroke-linecap="round"/>
<path d="M12 3.58H13.6V0.0120001L14.404 0V3.58H16L14 5.58L12 3.58Z" fill="white"/>
</svg>
