<svg width="14" height="24" viewBox="0 0 14 24" fill="none" xmlns="http://www.w3.org/2000/svg">
<path d="M5.71943 23.16C8.61229 23.16 10.9626 20.8093 10.9626 17.9165C10.9626 16.3895 10.33 15.0536 9.13429 13.9689C8.91358 13.7679 8.86343 13.6573 8.86343 13.356L8.88358 4.33588C8.88358 2.23674 7.60772 0.840454 5.71943 0.840454C3.82086 0.840454 2.545 2.23674 2.545 4.33588L2.55529 13.356C2.55529 13.6573 2.50515 13.7679 2.29386 13.9689C1.08872 15.0536 0.466003 16.3895 0.466003 17.916C0.466003 20.8089 2.806 23.16 5.71943 23.16ZM5.71943 21.7025C3.63015 21.7025 1.93258 19.995 1.93258 17.916C1.93258 16.6603 2.52529 15.5255 3.58986 14.8123C3.90143 14.601 4.02186 14.4103 4.02186 13.9985V4.39631C4.02186 3.13074 4.71486 2.31688 5.719 2.31688C6.71372 2.31688 7.39686 3.13074 7.39686 4.39631V13.9989C7.39686 14.4107 7.51729 14.6015 7.82886 14.8123C8.89343 15.5259 9.48615 16.6607 9.48615 17.9165C9.48615 19.9955 7.79843 21.7033 5.719 21.7033M10.7513 4.52745H12.9413C13.0188 4.52929 13.0958 4.51554 13.1679 4.48702C13.24 4.4585 13.3056 4.41579 13.3608 4.36143C13.4161 4.30706 13.4598 4.24215 13.4895 4.17054C13.5192 4.09894 13.5342 4.0221 13.5336 3.9446C13.5342 3.86705 13.5192 3.79018 13.4895 3.71855C13.4598 3.64691 13.416 3.58198 13.3607 3.52761C13.3054 3.47324 13.2397 3.43054 13.1676 3.40204C13.0955 3.37355 13.0184 3.35984 12.9409 3.36174H10.7509C10.6734 3.3599 10.5963 3.37365 10.5242 3.40217C10.4522 3.43069 10.3866 3.4734 10.3313 3.52777C10.2761 3.58213 10.2323 3.64705 10.2026 3.71865C10.173 3.79025 10.158 3.86709 10.1586 3.9446C10.1586 4.25617 10.3999 4.52745 10.7513 4.52745ZM10.7513 7.3496H12.9413C13.0187 7.35144 13.0958 7.3377 13.1678 7.30921C13.2399 7.28071 13.3054 7.23804 13.3607 7.18372C13.4159 7.1294 13.4597 7.06454 13.4894 6.99298C13.5191 6.92143 13.5341 6.84464 13.5336 6.76717C13.5342 6.68962 13.5192 6.61275 13.4895 6.54112C13.4598 6.46949 13.416 6.40455 13.3607 6.35018C13.3054 6.29581 13.2397 6.25311 13.1676 6.22461C13.0955 6.19612 13.0184 6.18241 12.9409 6.18431H10.7509C10.6734 6.18247 10.5963 6.19622 10.5242 6.22474C10.4522 6.25326 10.3866 6.29597 10.3313 6.35034C10.2761 6.4047 10.2323 6.46962 10.2026 6.54122C10.173 6.61282 10.158 6.68966 10.1586 6.76717C10.1586 7.07874 10.3999 7.3496 10.7513 7.3496ZM5.70915 20.3477C6.02932 20.348 6.34639 20.285 6.64211 20.1623C6.93784 20.0396 7.20639 19.8596 7.4323 19.6328C7.65822 19.4059 7.83705 19.1366 7.95851 18.8403C8.07996 18.5441 8.14164 18.2268 8.14 17.9066C8.14 16.9625 7.60772 16.1889 6.83415 15.7672C6.51272 15.5966 6.40215 15.4757 6.40215 14.9837V9.64974C6.40215 9.12688 6.10086 8.81574 5.70915 8.81574C5.32772 8.81574 5.01615 9.12731 5.01615 9.64974V14.9829C5.01615 15.4749 4.90558 15.5957 4.58415 15.7663C3.811 16.188 3.27829 16.962 3.27829 17.9057C3.27665 18.2259 3.33833 18.5432 3.45979 18.8395C3.58124 19.1357 3.76007 19.405 3.98599 19.6319C4.21191 19.8588 4.48045 20.0387 4.77618 20.1614C5.07191 20.2841 5.38897 20.3472 5.70915 20.3469M10.7517 10.1713H12.9417C13.0192 10.1731 13.0962 10.1594 13.1682 10.1309C13.2403 10.1024 13.3059 10.0598 13.3611 10.0054C13.4163 9.95111 13.4601 9.88625 13.4898 9.8147C13.5195 9.74314 13.5345 9.66635 13.534 9.58888C13.5347 9.51084 13.5199 9.43343 13.4904 9.36118C13.4609 9.28894 13.4172 9.2233 13.3621 9.16811C13.3069 9.11292 13.2412 9.06929 13.169 9.03977C13.0967 9.01025 13.0193 8.99542 12.9413 8.99617H10.7513C10.6733 8.99548 10.5959 9.01035 10.5237 9.0399C10.4515 9.06944 10.3859 9.11308 10.3308 9.16827C10.2757 9.22345 10.2321 9.28906 10.2026 9.36128C10.1731 9.4335 10.1583 9.51088 10.159 9.58888C10.159 9.90045 10.4003 10.1713 10.7517 10.1713ZM10.7517 12.9943H12.9417C13.0197 12.995 13.0971 12.9801 13.1693 12.9506C13.2415 12.921 13.3071 12.8774 13.3622 12.8222C13.4174 12.767 13.4609 12.7014 13.4904 12.6292C13.5199 12.557 13.5347 12.4796 13.534 12.4016C13.5345 12.3241 13.5195 12.2473 13.4898 12.1757C13.4601 12.1041 13.4162 12.0392 13.361 11.9849C13.3057 11.9306 13.24 11.8879 13.1679 11.8594C13.0959 11.831 13.0188 11.8173 12.9413 11.8192H10.7513C10.6738 11.8173 10.5967 11.8311 10.5247 11.8596C10.4526 11.8881 10.387 11.9308 10.3317 11.9852C10.2765 12.0396 10.2327 12.1045 10.2031 12.1761C10.1734 12.2477 10.1584 12.3245 10.159 12.402C10.1583 12.48 10.1732 12.5574 10.2027 12.6296C10.2323 12.7018 10.2759 12.7674 10.3311 12.8225C10.3863 12.8777 10.4519 12.9213 10.5241 12.9507C10.5963 12.9802 10.6737 12.9951 10.7517 12.9943Z" fill="white"/>
</svg>
