<svg width="22" height="23" viewBox="0 0 22 23" fill="none" xmlns="http://www.w3.org/2000/svg">
<path d="M8.20952 0.363636H9.61861V8.06818C9.61861 8.86364 9.43111 9.57386 9.05611 10.1989C8.6849 10.8201 8.16028 11.3106 7.48224 11.6705C6.80421 12.0265 6.00876 12.2045 5.09588 12.2045C4.183 12.2045 3.38755 12.0265 2.70952 11.6705C2.03149 11.3106 1.50497 10.8201 1.12997 10.1989C0.75876 9.57386 0.573153 8.86364 0.573153 8.06818V0.363636H1.98224V7.95455C1.98224 8.52273 2.10724 9.02841 2.35724 9.47159C2.60724 9.91098 2.96331 10.2576 3.42543 10.5114C3.89134 10.7614 4.44815 10.8864 5.09588 10.8864C5.74361 10.8864 6.30043 10.7614 6.76634 10.5114C7.23224 10.2576 7.58831 9.91098 7.83452 9.47159C8.08452 9.02841 8.20952 8.52273 8.20952 7.95455V0.363636ZM12.9098 0.363636L16.3643 10.1591H16.5007L19.9553 0.363636H21.4325L17.1598 12H15.7053L11.4325 0.363636H12.9098ZM1.59659 16.1818V22H0.892045V16.1818H1.59659ZM3.58878 19.375V22H2.91832V17.6364H3.56605V18.3182H3.62287C3.72514 18.0966 3.88045 17.9186 4.08878 17.7841C4.29711 17.6477 4.56605 17.5795 4.8956 17.5795C5.19105 17.5795 5.44957 17.6402 5.67116 17.7614C5.89276 17.8807 6.0651 18.0625 6.18821 18.3068C6.31132 18.5492 6.37287 18.8561 6.37287 19.2273V22H5.70241V19.2727C5.70241 18.9299 5.6134 18.6629 5.43537 18.4716C5.25734 18.2784 5.01302 18.1818 4.70241 18.1818C4.4884 18.1818 4.29711 18.2282 4.12855 18.321C3.96188 18.4138 3.83026 18.5492 3.73366 18.7273C3.63707 18.9053 3.58878 19.1212 3.58878 19.375ZM9.24574 22.0909C8.8821 22.0909 8.56108 21.9991 8.28267 21.8153C8.00426 21.6297 7.78646 21.3684 7.62926 21.0312C7.47206 20.6922 7.39347 20.2917 7.39347 19.8295C7.39347 19.3712 7.47206 18.9735 7.62926 18.6364C7.78646 18.2992 8.00521 18.0388 8.28551 17.8551C8.56581 17.6714 8.88968 17.5795 9.2571 17.5795C9.54119 17.5795 9.76563 17.6269 9.9304 17.7216C10.0971 17.8144 10.224 17.9205 10.3111 18.0398C10.4001 18.1572 10.4692 18.2538 10.5185 18.3295H10.5753V16.1818H11.2457V22H10.598V21.3295H10.5185C10.4692 21.4091 10.3991 21.5095 10.3082 21.6307C10.2173 21.75 10.0876 21.857 9.91903 21.9517C9.75047 22.0445 9.52604 22.0909 9.24574 22.0909ZM9.33665 21.4886C9.60559 21.4886 9.83286 21.4186 10.0185 21.2784C10.2041 21.1364 10.3452 20.9403 10.4418 20.6903C10.5384 20.4384 10.5866 20.1477 10.5866 19.8182C10.5866 19.4924 10.5393 19.2074 10.4446 18.9631C10.3499 18.7169 10.2098 18.5256 10.0241 18.3892C9.83854 18.2509 9.60938 18.1818 9.33665 18.1818C9.05256 18.1818 8.81581 18.2547 8.62642 18.4006C8.43892 18.5445 8.29782 18.7405 8.20312 18.9886C8.11032 19.2348 8.06392 19.5114 8.06392 19.8182C8.06392 20.1288 8.11127 20.411 8.20597 20.6648C8.30256 20.9167 8.4446 21.1174 8.6321 21.267C8.8215 21.4148 9.05634 21.4886 9.33665 21.4886ZM14.3963 22.0909C13.9759 22.0909 13.6132 21.9981 13.3082 21.8125C13.0052 21.625 12.7713 21.3636 12.6065 21.0284C12.4437 20.6913 12.3622 20.2992 12.3622 19.8523C12.3622 19.4053 12.4437 19.0114 12.6065 18.6705C12.7713 18.3277 13.0005 18.0606 13.294 17.8693C13.5895 17.6761 13.9342 17.5795 14.3281 17.5795C14.5554 17.5795 14.7798 17.6174 15.0014 17.6932C15.223 17.7689 15.4247 17.892 15.6065 18.0625C15.7884 18.2311 15.9332 18.4545 16.0412 18.733C16.1491 19.0114 16.2031 19.3542 16.2031 19.7614V20.0455H12.8395V19.4659H15.5213C15.5213 19.2197 15.4721 19 15.3736 18.8068C15.277 18.6136 15.1387 18.4612 14.9588 18.3494C14.7808 18.2377 14.5705 18.1818 14.3281 18.1818C14.0611 18.1818 13.83 18.2481 13.6349 18.3807C13.4418 18.5114 13.2931 18.6818 13.1889 18.892C13.0848 19.1023 13.0327 19.3277 13.0327 19.5682V19.9545C13.0327 20.2841 13.0895 20.5634 13.2031 20.7926C13.3187 21.0199 13.4787 21.1932 13.6832 21.3125C13.8878 21.4299 14.1255 21.4886 14.3963 21.4886C14.5724 21.4886 14.7315 21.464 14.8736 21.4148C15.0175 21.3636 15.1416 21.2879 15.2457 21.1875C15.3499 21.0852 15.4304 20.9583 15.4872 20.8068L16.1349 20.9886C16.0668 21.2083 15.9522 21.4015 15.7912 21.5682C15.6302 21.733 15.4313 21.8617 15.1946 21.9545C14.9579 22.0455 14.6918 22.0909 14.3963 22.0909ZM17.6058 17.6364L18.6513 19.4205L19.6967 17.6364H20.4695L19.0604 19.8182L20.4695 22H19.6967L18.6513 20.3068L17.6058 22H16.8331L18.2195 19.8182L16.8331 17.6364H17.6058Z" fill="white"/>
</svg>
