<svg width="17" height="12" viewBox="0 0 17 12" fill="none" xmlns="http://www.w3.org/2000/svg">
<path d="M8.56165 8.93623C9.38076 8.93623 10.0757 8.64949 10.6465 8.07601C11.2173 7.50253 11.503 6.80623 11.5035 5.98713C11.504 5.16802 11.2173 4.4728 10.6433 3.90147C10.0693 3.33013 9.37296 3.04447 8.55439 3.04447C7.73582 3.04447 7.0406 3.33121 6.46873 3.90469C5.89686 4.47817 5.6112 5.17474 5.61173 5.99438C5.61227 6.81403 5.89901 7.50898 6.47196 8.07923C7.0449 8.64949 7.74147 8.93516 8.56165 8.93623ZM8.55762 8.16711C7.95296 8.16711 7.43914 7.95562 7.01615 7.53263C6.59316 7.10964 6.38139 6.59554 6.38086 5.99035C6.38032 5.38516 6.59208 4.87133 7.01615 4.44888C7.44021 4.02643 7.95404 3.81466 8.55762 3.81359C9.1612 3.81251 9.67529 4.02428 10.0999 4.44888C10.5245 4.87348 10.736 5.38731 10.7344 5.99035C10.7328 6.59339 10.5213 7.10749 10.0999 7.53263C9.67851 7.95777 9.16442 8.16926 8.55762 8.16711ZM8.56004 11.2307C6.81325 11.2307 5.2218 10.7556 3.78567 9.80533C2.34955 8.85508 1.27353 7.58342 0.557617 5.99035C1.27245 4.39728 2.34767 3.12563 3.78325 2.17538C5.21884 1.22513 6.80976 0.75 8.556 0.75C10.3023 0.75 11.8934 1.22513 13.3296 2.17538C14.7657 3.12563 15.8417 4.39728 16.5576 5.99035C15.8428 7.58342 14.7676 8.85508 13.332 9.80533C11.8964 10.7556 10.3055 11.2307 8.55923 11.2307M8.55762 10.4245C10.076 10.4245 11.4702 10.0249 12.7402 9.22566C14.0103 8.42644 14.9809 7.348 15.6522 5.99035C14.9804 4.63323 14.0095 3.55507 12.7394 2.75584C11.4694 1.95662 10.0754 1.55675 8.55762 1.55621C7.0398 1.55567 5.64586 1.95555 4.37582 2.75584C3.10577 3.55614 2.13483 4.63431 1.46299 5.99035C2.13483 7.34747 3.10577 8.4259 4.37582 9.22566C5.64586 10.0254 7.0398 10.425 8.55762 10.4245Z" fill="white"/>
</svg>
