<svg width="19" height="10" viewBox="0 0 19 10" fill="none" xmlns="http://www.w3.org/2000/svg">
<path d="M8.38288 2.18816C8.38288 1.3312 9.0264 0.676532 9.7725 0.676532C10.5186 0.676532 11.1621 1.3312 11.1621 2.18816C11.1621 3.04512 10.5186 3.69978 9.7725 3.69978L9.771 3.69979L4.96898 3.69979C4.78217 3.69979 4.63072 3.85123 4.63072 4.03805C4.63072 4.22487 4.78217 4.37632 4.96898 4.37632L9.77249 4.37632L9.77359 4.37632C10.9355 4.37569 11.8386 3.37416 11.8386 2.18816C11.8386 1.00178 10.935 0 9.7725 0C8.61003 0 7.70635 1.00178 7.70635 2.18816C7.70635 2.37498 7.8578 2.52642 8.04462 2.52642C8.23144 2.52642 8.38288 2.37498 8.38288 2.18816Z" fill="white"/>
<path d="M2.61904 5.62367C2.43222 5.62367 2.28078 5.77512 2.28078 5.96194C2.28078 6.14876 2.43222 6.30021 2.61904 6.30021L12.1197 6.30021L12.1224 6.30022C12.8685 6.30022 13.512 6.95488 13.512 7.81184C13.512 8.6688 12.8685 9.32347 12.1224 9.32347C11.3763 9.32347 10.7328 8.6688 10.7328 7.81184C10.7328 7.62502 10.5813 7.47358 10.3945 7.47358C10.2077 7.47358 10.0562 7.62502 10.0562 7.81184C10.0562 8.99822 10.9599 10 12.1224 10C13.2849 10 14.1885 8.99822 14.1885 7.81184C14.1885 6.62648 13.2864 5.6254 12.1254 5.62369L12.1224 5.62367H2.61904Z" fill="white"/>
<path d="M14.154 2.76162C14.154 1.75142 14.9136 0.972515 15.8028 0.972515C16.692 0.972515 17.4516 1.75142 17.4516 2.76162C17.4516 3.77183 16.692 4.55073 15.8028 4.55073C15.7999 4.55073 15.797 4.55077 15.794 4.55084C15.7912 4.55077 15.7884 4.55074 15.7855 4.55074L0.338266 4.55074C0.151447 4.55074 0 4.70218 0 4.889C0 5.07582 0.151447 5.22727 0.338266 5.22727L15.7855 5.22727C15.7885 5.22727 15.7914 5.22723 15.7943 5.22716C15.7971 5.22723 15.8 5.22727 15.8028 5.22727C17.1084 5.22727 18.1281 4.10125 18.1281 2.76162C18.1281 1.422 17.1084 0.295983 15.8028 0.295983C14.4972 0.295983 13.4775 1.422 13.4775 2.76162C13.4775 2.94844 13.6289 3.09989 13.8157 3.09989C14.0026 3.09989 14.154 2.94844 14.154 2.76162Z" fill="white"/>
</svg>
